<?xml version="1.0" encoding="UTF-8"?>
<svg xmlns="http://www.w3.org/2000/svg" xmlns:xlink="http://www.w3.org/1999/xlink" viewBox="0 0 640 640">
  <defs>
    <style>
      .e {
        fill: #b7b7b7;
      }

      .f {
        fill: #fff;
      }

      .g {
        fill: #cececd;
      }

      .h {
        fill: #e2e2e2;
      }

      .i {
        fill: url(#b);
      }

      .j {
        fill: #edeced;
      }
    </style>
    <linearGradient id="b" x1="0" y1="0" x2="640" y2="640" gradientUnits="userSpaceOnUse">
      <stop offset="0" stop-color="#4100f4"/>
      <stop offset=".14" stop-color="#4f1af0"/>
      <stop offset=".43" stop-color="#735de8"/>
      <stop offset=".85" stop-color="#aec8db"/>
      <stop offset="1" stop-color="#c3efd7"/>
    </linearGradient>
  </defs>
  <g id="a" data-name="Layer 2">
    <rect class="i" width="640" height="640"/>
  </g>
  <g id="c" data-name="Layer 1">
    <g>
      <path class="j" d="m173.22,362.76c-3.88-40.78,19.36-73.14,39.07-86.18,20.15-13.33,29.55-15.24,34.09-17.8,20.93-11.77,35.65-38.02,63.78-57.39,32.01-22.03,75.8-25.3,102.66-10.57,24.49,13.43,49.6,42.69,42.88,100.93-6.72,58.24-153.04,154.09-178.14,155.46-25.1,1.37-98.49-22.81-104.35-84.44h0Z"/>
      <path class="h" d="m336.34,349.74c-11.5,6.74-54.7,49.55-104.27,48.38s-57.19-25.13-57.19-25.13c0,0,7.11,41.76,41.29,66.5,38.68,27.99,79.71,16.97,91.67,14.29,17.75-3.98,33.43-12.14,49.13-20.66,15.7-8.52,71.53-35.41,93.45-77.73,24.2-46.69,18.44-84.1,6.35-111.31-12.8-28.79-25.27-39.36-25.27-39.36,0,0,11.62,60.29-12.99,93.85-34.92,47.59-70.67,44.44-82.17,51.18h0Z"/>
      <path class="e" d="m318.25,399.76c.15,3.08,11.11,2.83,19.07,1.54,8.42-1.37,15.38-1.49,16.56-4.74,1.17-3.25-11.67-14.55-19.24-14.16-4.74.27-16.61,12.87-16.39,17.36h0Z"/>
      <path class="e" d="m375.29,405.69c1.64,2.37,8.42-1.25,10.92-4.49,2.49-3.25,5.3-9.52,3.05-10.92s-8.67-1.37-11.84,2.54c-3.15,3.93-3.76,10.5-2.12,12.87Z"/>
      <path class="e" d="m450.16,255.95c-2.66-4.69-7.42,6.4-7.64,10.23s2.66,6.08,5.86,6.76c3.15.66,10.33-1.93,1.78-17h0Z"/>
      <path class="e" d="m234.85,423.96c-2.15,3.64,1.39,6.28,4.98,8.72,2.83,1.93,9.77,2.95,11.14.81,1.39-2.15-1.34-5.05-6.52-9.4-3.54-2.95-7.45-3.76-9.6-.12h0Z"/>
      <path class="g" d="m206.33,368.18c-3.05,2.12-.59,11.55-.17,13.36s12.58,2.44,14.38-.34-2-6.81-4.69-9.62c-2.69-2.78-6.47-5.52-9.52-3.39Z"/>
      <path class="g" d="m228.06,346.23c3.76,5.1,10.57-1.03,11.67-5.59,1.17-4.91-2.95-8.11-7.62-5.2-3.74,2.3-6.25,7.84-4.05,10.79Z"/>
      <path class="g" d="m276.71,249.06c-4.88-2.05-6.74,2.25-8.57,6.59s-7.74,12.26-4.03,13.36,12.45.59,14.63-2.95c2.17-3.57,2.86-14.92-2.03-17h0Z"/>
      <path class="f" d="m193.31,356.56c5.37,2.42,13.72-9.01,17.56-14.51,5.64-8.08,14.14-18.29,34.04-30.62,27.3-16.9,55.8-12.65,70.45-25.37,14.65-12.72,23.15-37.95,34.33-50.45,20.44-22.86,41.66-7.25,44.62-18.31,2.95-11.06-12.19-20.46-30.06-20.44-17.85.05-38.27,6.62-56.83,36.63-18.56,30.01-23.17,39.19-40.39,44.62-17.22,5.45-38.61,12.63-59.22,35.56-11.45,12.75-23.47,38.88-14.51,42.91h0Z"/>
      <path class="g" d="m365.96,245.06c1.05,7.81,11.79,12.06,18.12,12.14,5.93.07,10.21-3.79,10.13-7.72-.07-4.71-7.74-6.89-10.74-8.06-5.89-2.27-7.25-7.2-12.75-5.45-4.98,1.61-4.91,7.89-4.76,9.08h0Z"/>
    </g>
  </g>
</svg>